<svg xmlns="http://www.w3.org/2000/svg" viewBox="0 0 64 64">
  <rect width="64" height="64" rx="12.8" ry="12.8" fill="#000"/>
  <g transform="translate(6.8867 45.9155) scale(0.01868 -0.01868)" fill="#fff">
    <path transform="translate(0 0)" d="M111 0V1490H707Q875 1490 997.5 1430.5Q1120 1371 1186.5 1261.0Q1253 1151 1253 1001Q1253 853 1182.5 745.0Q1112 637 987 579L1286 0H956L692 521Q691 521 689 521H419V0ZM419 768H689Q811 768 881.5 831.5Q952 895 952 1001Q952 1108 881.0 1171.0Q810 1234 688 1234H419Z"/>
    <path transform="translate(1332 0)" d="M54 0V238L713 1048Q750 1093 788.0 1137.5Q826 1182 865 1226H76V1490H1239V1252L591 450Q553 404 513.5 357.0Q474 310 433 264H1246V0Z"/>
  </g>
</svg>
