<svg width="61" height="14" viewBox="0 0 61 14" fill="none" xmlns="http://www.w3.org/2000/svg">
<path d="M2.61792 5.52995H6.28992C6.82992 5.52995 7.27992 5.37995 7.63992 5.07995C7.99992 4.76795 8.17992 4.32395 8.17992 3.74795C8.17992 3.09995 8.01792 2.64395 7.69392 2.37995C7.36992 2.11595 6.90192 1.98395 6.28992 1.98395H2.61792V5.52995ZM0.36792 0.147949H6.61392C7.76592 0.147949 8.68992 0.411949 9.38592 0.93995C10.0819 1.46795 10.4299 2.26595 10.4299 3.33395C10.4299 3.98195 10.2679 4.53995 9.94392 5.00795C9.63192 5.46395 9.18192 5.81795 8.59392 6.06995V6.10595C9.38592 6.27395 9.98592 6.65195 10.3939 7.23995C10.8019 7.81595 11.0059 8.54195 11.0059 9.41795C11.0059 9.92195 10.9159 10.3959 10.7359 10.8399C10.5559 11.2719 10.2739 11.65 9.88992 11.974C9.50592 12.286 9.01392 12.5379 8.41392 12.7299C7.81392 12.9099 7.09992 13 6.27192 13H0.36792V0.147949ZM2.61792 11.1639H6.59592C7.27992 11.1639 7.80792 10.9899 8.17992 10.6419C8.56392 10.2819 8.75592 9.77795 8.75592 9.12995C8.75592 8.49395 8.56392 8.00795 8.17992 7.67195C7.80792 7.32395 7.27992 7.14995 6.59592 7.14995H2.61792V11.1639Z" fill="black"/>
<path d="M20.1697 13H18.1177V9.38195H16.1017L13.9057 13H11.4037L14.0677 9.21995C13.6597 9.11195 13.3237 8.95595 13.0597 8.75195C12.8077 8.54795 12.6097 8.32595 12.4657 8.08595C12.3217 7.84595 12.2197 7.59395 12.1597 7.32995C12.1117 7.06595 12.0877 6.81395 12.0877 6.57395C12.0877 6.28595 12.1297 5.97395 12.2137 5.63795C12.2977 5.30195 12.4597 4.98995 12.6997 4.70195C12.9397 4.41395 13.2697 4.17395 13.6897 3.98195C14.1217 3.78995 14.6857 3.69395 15.3817 3.69395H20.1697V13ZM18.1177 5.22395H15.4717C15.1117 5.22395 14.7997 5.33195 14.5357 5.54795C14.2717 5.76395 14.1397 6.11195 14.1397 6.59195C14.1397 7.07195 14.2717 7.40195 14.5357 7.58195C14.7997 7.76195 15.1117 7.85195 15.4717 7.85195H18.1177V5.22395Z" fill="black"/>
<path d="M22.0583 6.21395C22.2263 5.25395 22.6403 4.55195 23.3003 4.10795C23.9723 3.66395 24.8543 3.44195 25.9463 3.44195C26.4743 3.44195 26.9783 3.50195 27.4583 3.62195C27.9383 3.74195 28.3583 3.92195 28.7183 4.16195C29.0783 4.38995 29.3603 4.67195 29.5643 5.00795C29.7803 5.34395 29.8883 5.73395 29.8883 6.17795C29.8883 6.69395 29.7563 7.11995 29.4923 7.45595C29.2403 7.79195 28.8863 8.02595 28.4303 8.15795V8.19395C28.9343 8.28995 29.3603 8.53595 29.7083 8.93195C30.0563 9.31595 30.2303 9.80795 30.2303 10.4079C30.2303 10.9359 30.1103 11.38 29.8703 11.74C29.6423 12.1 29.3363 12.394 28.9523 12.622C28.5803 12.838 28.1543 12.9939 27.6743 13.0899C27.2063 13.1979 26.7323 13.252 26.2523 13.252C24.9323 13.252 23.8763 13.006 23.0843 12.514C22.3043 12.022 21.8183 11.206 21.6263 10.066H23.6783C23.7263 10.378 23.8163 10.6359 23.9483 10.8399C24.0923 11.0439 24.2603 11.212 24.4523 11.344C24.6563 11.464 24.8843 11.548 25.1363 11.596C25.3883 11.644 25.6523 11.6679 25.9283 11.6679C26.5883 11.6679 27.1223 11.5539 27.5303 11.3259C27.9383 11.0859 28.1423 10.7079 28.1423 10.1919C28.1423 9.75995 28.0043 9.44195 27.7283 9.23795C27.4643 9.03395 27.0383 8.93195 26.4503 8.93195H24.9563V7.32995H26.4683C26.9123 7.32995 27.2603 7.25795 27.5123 7.11395C27.7763 6.95795 27.9083 6.66995 27.9083 6.24995C27.9083 5.79395 27.7223 5.48195 27.3503 5.31395C26.9783 5.13395 26.4983 5.04395 25.9103 5.04395C25.3103 5.04395 24.8603 5.12795 24.5603 5.29595C24.2723 5.46395 24.0863 5.76995 24.0023 6.21395H22.0583Z" fill="black"/>
<path d="M39.537 10.9299C39.537 11.1819 39.567 11.3619 39.627 11.4699C39.699 11.5779 39.831 11.632 40.023 11.632H40.239C40.323 11.632 40.419 11.62 40.527 11.596V13.018C40.455 13.042 40.359 13.0659 40.239 13.0899C40.131 13.1259 40.017 13.1559 39.897 13.1799C39.777 13.2039 39.657 13.2219 39.537 13.2339C39.417 13.2459 39.315 13.252 39.231 13.252C38.811 13.252 38.463 13.168 38.187 13C37.911 12.832 37.731 12.538 37.647 12.118C37.239 12.514 36.735 12.8019 36.135 12.9819C35.547 13.1619 34.977 13.252 34.425 13.252C34.005 13.252 33.603 13.1919 33.219 13.0719C32.835 12.9639 32.493 12.8019 32.193 12.5859C31.905 12.3579 31.671 12.076 31.491 11.74C31.323 11.392 31.239 10.9899 31.239 10.5339C31.239 9.95795 31.341 9.48995 31.545 9.12995C31.761 8.76995 32.037 8.48795 32.373 8.28395C32.721 8.07995 33.105 7.93595 33.525 7.85195C33.957 7.75595 34.389 7.68395 34.821 7.63595C35.193 7.56395 35.547 7.51595 35.883 7.49195C36.219 7.45595 36.513 7.40195 36.765 7.32995C37.029 7.25795 37.233 7.14995 37.377 7.00595C37.533 6.84995 37.611 6.62195 37.611 6.32195C37.611 6.05795 37.545 5.84195 37.413 5.67395C37.293 5.50595 37.137 5.37995 36.945 5.29595C36.765 5.19995 36.561 5.13995 36.333 5.11595C36.105 5.07995 35.889 5.06195 35.685 5.06195C35.109 5.06195 34.635 5.18195 34.263 5.42195C33.891 5.66195 33.681 6.03395 33.633 6.53795H31.581C31.617 5.93795 31.761 5.43995 32.013 5.04395C32.265 4.64795 32.583 4.32995 32.967 4.08995C33.363 3.84995 33.807 3.68195 34.299 3.58595C34.791 3.48995 35.295 3.44195 35.811 3.44195C36.267 3.44195 36.717 3.48995 37.161 3.58595C37.605 3.68195 38.001 3.83795 38.349 4.05395C38.709 4.26995 38.997 4.55195 39.213 4.89995C39.429 5.23595 39.537 5.64995 39.537 6.14195V10.9299ZM37.485 8.33795C37.173 8.54195 36.789 8.66795 36.333 8.71595C35.877 8.75195 35.421 8.81195 34.965 8.89595C34.749 8.93195 34.539 8.98595 34.335 9.05795C34.131 9.11795 33.951 9.20795 33.795 9.32795C33.639 9.43595 33.513 9.58595 33.417 9.77795C33.333 9.95795 33.291 10.1799 33.291 10.4439C33.291 10.6719 33.357 10.8639 33.489 11.0199C33.621 11.1759 33.777 11.302 33.957 11.398C34.149 11.482 34.353 11.5419 34.569 11.5779C34.797 11.6139 35.001 11.632 35.181 11.632C35.409 11.632 35.655 11.602 35.919 11.542C36.183 11.482 36.429 11.3799 36.657 11.2359C36.897 11.0919 37.095 10.9119 37.251 10.6959C37.407 10.4679 37.485 10.1919 37.485 9.86795V8.33795Z" fill="black"/>
<path d="M41.619 3.69395H43.671V7.54595H48.297V3.69395H50.349V13H48.297V9.07595H43.671V13H41.619V3.69395Z" fill="black"/>
<path d="M54.4949 11.4699H57.1409C57.5009 11.4699 57.8129 11.362 58.0769 11.146C58.3409 10.93 58.4729 10.5819 58.4729 10.1019C58.4729 9.62195 58.3409 9.29195 58.0769 9.11195C57.8129 8.93195 57.5009 8.84195 57.1409 8.84195H54.4949V11.4699ZM52.4429 3.69395H54.4949V7.25795H57.2309C57.9269 7.25795 58.4849 7.35395 58.9049 7.54595C59.3369 7.73795 59.6729 7.97795 59.9129 8.26595C60.1529 8.54195 60.3149 8.84795 60.3989 9.18395C60.4829 9.51995 60.5249 9.83195 60.5249 10.12C60.5249 10.408 60.4829 10.72 60.3989 11.056C60.3149 11.392 60.1529 11.7039 59.9129 11.992C59.6729 12.28 59.3369 12.52 58.9049 12.712C58.4849 12.904 57.9269 13 57.2309 13H52.4429V3.69395Z" fill="black"/>
</svg>
